<svg width="881.9995117187497" height="881.9995117187497" xmlns="http://www.w3.org/2000/svg">

 <title/>
 <metadata id="imagebot_7">image/svg+xmlCounterclockwise Circle Arrows2016-01-08Algot RunemanAlgot Runemanruneman.orgcircle-arrows-cc-rgb.svg</metadata>
 <g label="Layer 1" id="imagebot_2">
  <path label="Layer 1" d="M -431.631 147.002 A 421.429 421.429 0 0 0 -806.543 357.6 A 421.429 421.429 0 0 0 -820.664 751.483 L -712.127 748.282 L -640.815 647.251 A 214.531 214.531 0 0 1 -627.365 461.048 A 214.531 214.531 0 0 1 -431.097 354.081 L -482.021 243.79 L -429.951 147.126 A 421.429 421.429 0 0 0 -431.631 147.003 L -431.631 147.002 Z" transform="matrix(0.998854 -0.0478703 0.0478703 0.998854 854.738 -147.677)" stroke-miterlimit="4" stroke-linecap="round" stroke="#ffffff" fill="#59b9b1" id="imagebot_6"/>
  <path label="Layer 1" d="M -410.703 148.545 L -462.01 243.789 L -410.127 356.156 A 214.531 214.531 0 0 1 -334.308 382.525 A 214.531 214.531 0 0 1 -255.785 675.58 A 214.531 214.531 0 0 1 -261.392 684.262 L -140.437 695.305 L -82.7186 788.797 A 421.429 421.429 0 0 0 -76.6073 779.027 A 421.429 421.429 0 0 0 -230.861 203.346 A 421.429 421.429 0 0 0 -410.703 148.545 Z" transform="matrix(0.998854 -0.0478703 0.0478703 0.998854 854.738 -147.677)" stroke-miterlimit="4" stroke-linecap="round" stroke="#ffffff" fill="#8dc497" id="imagebot_5"/>
  <path label="Layer 1" d="M -632.109 666.426 L -702.121 765.612 L -811.851 768.85 A 421.429 421.429 0 0 0 -652.288 933.284 A 421.429 421.429 0 0 0 -93.2017 805.35 L -150.442 712.635 L -273.641 701.387 A 214.531 214.531 0 0 1 -548.838 754.104 A 214.531 214.531 0 0 1 -632.107 666.426 L -632.109 666.426 Z" transform="matrix(0.998854 -0.0478703 0.0478703 0.998854 854.738 -147.677)" stroke-miterlimit="4" stroke-linecap="round" stroke="#ffffff" fill="#2b9777" id="imagebot_4"/>
  <title>Layer 1</title>
 </g>
</svg>